<svg xmlns="http://www.w3.org/2000/svg" xmlns:xlink="http://www.w3.org/1999/xlink" width="500" zoomAndPan="magnify" viewBox="0 0 375 74.999997" height="100" preserveAspectRatio="xMidYMid meet" version="1.0"><defs><g/><clipPath id="8f39f7a683"><path d="M 24.914062 10.875 L 78.164062 10.875 L 78.164062 64.125 L 24.914062 64.125 Z M 24.914062 10.875 " clip-rule="nonzero"/></clipPath><clipPath id="4cc1107389"><path d="M 51.539062 10.875 C 49.792969 10.875 48.0625 11.046875 46.347656 11.386719 C 44.632812 11.726562 42.964844 12.234375 41.351562 12.902344 C 39.734375 13.570312 38.203125 14.390625 36.75 15.363281 C 35.292969 16.332031 33.949219 17.4375 32.714844 18.671875 C 31.476562 19.910156 30.375 21.253906 29.402344 22.707031 C 28.429688 24.160156 27.609375 25.695312 26.941406 27.3125 C 26.273438 28.925781 25.769531 30.589844 25.425781 32.304688 C 25.085938 34.019531 24.914062 35.75 24.914062 37.5 C 24.914062 39.25 25.085938 40.980469 25.425781 42.695312 C 25.769531 44.410156 26.273438 46.074219 26.941406 47.6875 C 27.609375 49.304688 28.429688 50.839844 29.402344 52.292969 C 30.375 53.746094 31.476562 55.089844 32.714844 56.328125 C 33.949219 57.5625 35.292969 58.667969 36.75 59.636719 C 38.203125 60.609375 39.734375 61.429688 41.351562 62.097656 C 42.964844 62.765625 44.632812 63.273438 46.347656 63.613281 C 48.0625 63.953125 49.792969 64.125 51.539062 64.125 C 53.289062 64.125 55.019531 63.953125 56.734375 63.613281 C 58.449219 63.273438 60.113281 62.765625 61.730469 62.097656 C 63.34375 61.429688 64.878906 60.609375 66.332031 59.636719 C 67.785156 58.667969 69.132812 57.5625 70.367188 56.328125 C 71.601562 55.089844 72.707031 53.746094 73.679688 52.292969 C 74.648438 50.839844 75.46875 49.304688 76.140625 47.6875 C 76.808594 46.074219 77.3125 44.410156 77.652344 42.695312 C 77.996094 40.980469 78.164062 39.25 78.164062 37.5 C 78.164062 35.75 77.996094 34.019531 77.652344 32.304688 C 77.3125 30.589844 76.808594 28.925781 76.140625 27.3125 C 75.46875 25.695312 74.648438 24.160156 73.679688 22.707031 C 72.707031 21.253906 71.601562 19.910156 70.367188 18.671875 C 69.132812 17.4375 67.785156 16.332031 66.332031 15.363281 C 64.878906 14.390625 63.34375 13.570312 61.730469 12.902344 C 60.113281 12.234375 58.449219 11.726562 56.734375 11.386719 C 55.019531 11.046875 53.289062 10.875 51.539062 10.875 Z M 51.539062 10.875 " clip-rule="nonzero"/></clipPath><clipPath id="abb9462c81"><path d="M 29.910156 15.976562 L 72.660156 15.976562 L 72.660156 58.726562 L 29.910156 58.726562 Z M 29.910156 15.976562 " clip-rule="nonzero"/></clipPath></defs><rect x="-37.5" width="450" fill="#ffffff" y="-7.5" height="89.999996" fill-opacity="1"/><g fill="#203d3c" fill-opacity="1"><g transform="translate(88.375966, 49.901612)"><g><path d="M 1.671875 -22.96875 L 10.046875 -22.96875 C 12.390625 -22.96875 14.285156 -22.363281 15.734375 -21.15625 C 17.179688 -19.945312 17.90625 -18.191406 17.90625 -15.890625 C 17.90625 -13.597656 17.171875 -11.796875 15.703125 -10.484375 C 14.234375 -9.171875 12.347656 -8.515625 10.046875 -8.515625 L 6.90625 -8.515625 L 6.90625 0 L 1.671875 0 Z M 6.90625 -12.703125 L 8.375 -12.703125 C 9.550781 -12.703125 10.515625 -12.9375 11.265625 -13.40625 C 12.015625 -13.875 12.390625 -14.648438 12.390625 -15.734375 C 12.390625 -16.828125 12.015625 -17.609375 11.265625 -18.078125 C 10.515625 -18.554688 9.550781 -18.796875 8.375 -18.796875 L 6.90625 -18.796875 Z M 6.90625 -12.703125 "/></g></g></g><g fill="#203d3c" fill-opacity="1"><g transform="translate(112.476533, 49.901612)"><g><path d="M 13.34375 -22.96875 L 22.609375 0 L 16.984375 0 L 15.28125 -4.59375 L 6.546875 -4.59375 L 4.84375 0 L -0.78125 0 L 8.5 -22.96875 Z M 13.5 -9.1875 L 10.9375 -15.875 L 10.890625 -15.875 L 8.328125 -9.1875 Z M 13.5 -9.1875 "/></g></g></g><g fill="#203d3c" fill-opacity="1"><g transform="translate(139.860407, 49.901612)"><g><path d="M 1.671875 -22.96875 L 9.890625 -22.96875 C 12.097656 -22.96875 13.894531 -22.378906 15.28125 -21.203125 C 16.675781 -20.023438 17.375 -18.34375 17.375 -16.15625 C 17.375 -14.457031 16.953125 -13.035156 16.109375 -11.890625 C 15.265625 -10.753906 14.117188 -9.957031 12.671875 -9.5 L 20.578125 0 L 13.921875 0 L 6.90625 -9.078125 L 6.90625 0 L 1.671875 0 Z M 6.90625 -12.78125 L 7.515625 -12.78125 C 7.992188 -12.78125 8.398438 -12.789062 8.734375 -12.8125 C 9.078125 -12.832031 9.460938 -12.894531 9.890625 -13 C 10.316406 -13.113281 10.65625 -13.269531 10.90625 -13.46875 C 11.164062 -13.675781 11.390625 -13.972656 11.578125 -14.359375 C 11.765625 -14.753906 11.859375 -15.226562 11.859375 -15.78125 C 11.859375 -16.34375 11.765625 -16.816406 11.578125 -17.203125 C 11.390625 -17.597656 11.164062 -17.894531 10.90625 -18.09375 C 10.65625 -18.300781 10.316406 -18.457031 9.890625 -18.5625 C 9.460938 -18.675781 9.078125 -18.742188 8.734375 -18.765625 C 8.398438 -18.785156 7.992188 -18.796875 7.515625 -18.796875 L 6.90625 -18.796875 Z M 6.90625 -12.78125 "/></g></g></g><g fill="#203d3c" fill-opacity="1"><g transform="translate(165.35221, 49.901612)"><g><path d="M 0.21875 -18.375 L 0.21875 -22.96875 L 16.375 -22.96875 L 16.375 -18.375 L 10.921875 -18.375 L 10.921875 0 L 5.6875 0 L 5.6875 -18.375 Z M 0.21875 -18.375 "/></g></g></g><g fill="#203d3c" fill-opacity="1"><g transform="translate(187.505052, 49.901612)"><g><path d="M 6.90625 -14.25 L 6.90625 0 L 1.671875 0 L 1.671875 -22.96875 L 6.90625 -22.96875 L 16.03125 -8.71875 L 16.09375 -8.71875 L 16.09375 -22.96875 L 21.328125 -22.96875 L 21.328125 0 L 16.09375 0 L 6.953125 -14.25 Z M 6.90625 -14.25 "/></g></g></g><g fill="#203d3c" fill-opacity="1"><g transform="translate(216.057548, 49.901612)"><g><path d="M 14.8125 -22.96875 L 14.8125 -18.375 L 6.90625 -18.375 L 6.90625 -13.8125 L 14.484375 -13.8125 L 14.484375 -9.21875 L 6.90625 -9.21875 L 6.90625 -4.59375 L 14.8125 -4.59375 L 14.8125 0 L 1.671875 0 L 1.671875 -22.96875 Z M 14.8125 -22.96875 "/></g></g></g><g fill="#203d3c" fill-opacity="1"><g transform="translate(237.765205, 49.901612)"><g><path d="M 1.671875 -22.96875 L 9.890625 -22.96875 C 12.097656 -22.96875 13.894531 -22.378906 15.28125 -21.203125 C 16.675781 -20.023438 17.375 -18.34375 17.375 -16.15625 C 17.375 -14.457031 16.953125 -13.035156 16.109375 -11.890625 C 15.265625 -10.753906 14.117188 -9.957031 12.671875 -9.5 L 20.578125 0 L 13.921875 0 L 6.90625 -9.078125 L 6.90625 0 L 1.671875 0 Z M 6.90625 -12.78125 L 7.515625 -12.78125 C 7.992188 -12.78125 8.398438 -12.789062 8.734375 -12.8125 C 9.078125 -12.832031 9.460938 -12.894531 9.890625 -13 C 10.316406 -13.113281 10.65625 -13.269531 10.90625 -13.46875 C 11.164062 -13.675781 11.390625 -13.972656 11.578125 -14.359375 C 11.765625 -14.753906 11.859375 -15.226562 11.859375 -15.78125 C 11.859375 -16.34375 11.765625 -16.816406 11.578125 -17.203125 C 11.390625 -17.597656 11.164062 -17.894531 10.90625 -18.09375 C 10.65625 -18.300781 10.316406 -18.457031 9.890625 -18.5625 C 9.460938 -18.675781 9.078125 -18.742188 8.734375 -18.765625 C 8.398438 -18.785156 7.992188 -18.796875 7.515625 -18.796875 L 6.90625 -18.796875 Z M 6.90625 -12.78125 "/></g></g></g><g fill="#e68600" fill-opacity="1"><g transform="translate(263.267135, 49.901612)"><g><path d="M 10.4375 0 L 7.09375 0 L -0.5625 -14.28125 L 5.125 -14.28125 L 8.609375 -6.578125 L 12.03125 -14.28125 L 15.421875 -14.28125 L 18.84375 -6.578125 L 22.328125 -14.28125 L 28.015625 -14.28125 L 20.359375 0 L 17.015625 0 L 13.734375 -7.375 Z M 10.4375 0 "/></g></g></g><g fill="#e68600" fill-opacity="1"><g transform="translate(296.271567, 49.901612)"><g><path d="M 2.140625 -22.25 C 2.710938 -22.820312 3.398438 -23.109375 4.203125 -23.109375 C 5.003906 -23.109375 5.691406 -22.820312 6.265625 -22.25 C 6.835938 -21.675781 7.125 -20.988281 7.125 -20.1875 C 7.125 -19.382812 6.835938 -18.695312 6.265625 -18.125 C 5.691406 -17.550781 5.003906 -17.265625 4.203125 -17.265625 C 3.398438 -17.265625 2.710938 -17.550781 2.140625 -18.125 C 1.566406 -18.695312 1.28125 -19.382812 1.28125 -20.1875 C 1.28125 -20.988281 1.566406 -21.675781 2.140625 -22.25 Z M 1.671875 -14.28125 L 1.671875 0 L 6.59375 0 L 6.59375 -14.28125 Z M 1.671875 -14.28125 "/></g></g></g><g fill="#e68600" fill-opacity="1"><g transform="translate(310.243988, 49.901612)"><g><path d="M 2.5 -14.28125 L 2.5 -19.609375 L 7.4375 -19.609375 L 7.4375 -14.28125 L 10.4375 -14.28125 L 10.4375 -10.53125 L 7.4375 -10.53125 L 7.4375 -5.984375 C 7.4375 -4.671875 7.804688 -4.015625 8.546875 -4.015625 C 8.734375 -4.015625 8.925781 -4.050781 9.125 -4.125 C 9.332031 -4.195312 9.492188 -4.269531 9.609375 -4.34375 L 9.765625 -4.453125 L 11 -0.46875 C 9.9375 0.125 8.726562 0.421875 7.375 0.421875 C 6.445312 0.421875 5.648438 0.257812 4.984375 -0.0625 C 4.316406 -0.394531 3.8125 -0.832031 3.46875 -1.375 C 3.125 -1.925781 2.875 -2.503906 2.71875 -3.109375 C 2.570312 -3.710938 2.5 -4.359375 2.5 -5.046875 L 2.5 -10.53125 L 0.453125 -10.53125 L 0.453125 -14.28125 Z M 2.5 -14.28125 "/></g></g></g><g fill="#e68600" fill-opacity="1"><g transform="translate(326.804097, 49.901612)"><g><path d="M 1.671875 0 L 1.671875 -23.953125 L 6.59375 -23.953125 L 6.59375 -12.78125 L 6.65625 -12.78125 C 7.9375 -14.0625 9.300781 -14.703125 10.75 -14.703125 C 11.457031 -14.703125 12.15625 -14.609375 12.84375 -14.421875 C 13.539062 -14.234375 14.207031 -13.941406 14.84375 -13.546875 C 15.488281 -13.160156 16.007812 -12.609375 16.40625 -11.890625 C 16.8125 -11.179688 17.015625 -10.351562 17.015625 -9.40625 L 17.015625 0 L 12.078125 0 L 12.078125 -8.078125 C 12.078125 -8.816406 11.84375 -9.460938 11.375 -10.015625 C 10.90625 -10.578125 10.285156 -10.859375 9.515625 -10.859375 C 8.773438 -10.859375 8.101562 -10.566406 7.5 -9.984375 C 6.894531 -9.410156 6.59375 -8.773438 6.59375 -8.078125 L 6.59375 0 Z M 1.671875 0 "/></g></g></g><g clip-path="url(#8f39f7a683)"><g clip-path="url(#4cc1107389)"><path fill="#e68600" d="M 24.914062 10.875 L 78.164062 10.875 L 78.164062 64.125 L 24.914062 64.125 Z M 24.914062 10.875 " fill-opacity="1" fill-rule="nonzero"/></g></g><g clip-path="url(#abb9462c81)"><path fill="#203d3c" d="M 51.433594 59.015625 C 39.566406 59.015625 29.910156 49.363281 29.910156 37.5 C 29.910156 25.628906 39.566406 15.976562 51.433594 15.976562 C 63.300781 15.976562 72.953125 25.628906 72.953125 37.5 C 72.953125 49.363281 63.300781 59.015625 51.433594 59.015625 Z M 51.433594 18.105469 C 40.742188 18.105469 32.042969 26.804688 32.042969 37.5 C 32.042969 48.1875 40.742188 56.886719 51.433594 56.886719 C 62.125 56.886719 70.824219 48.1875 70.824219 37.5 C 70.824219 26.804688 62.125 18.105469 51.433594 18.105469 Z M 51.433594 18.105469 " fill-opacity="1" fill-rule="nonzero"/></g><path fill="#203d3c" d="M 64.335938 46.1875 C 60.316406 39.980469 56.296875 33.769531 52.277344 27.5625 C 51.816406 26.84375 50.804688 26.832031 50.34375 27.5625 C 46.40625 33.769531 42.472656 39.980469 38.535156 46.1875 C 37.757812 47.414062 39.699219 48.535156 40.472656 47.320312 C 44.40625 41.109375 48.34375 34.902344 52.277344 28.691406 C 51.632812 28.691406 50.988281 28.691406 50.34375 28.691406 C 54.363281 34.902344 58.378906 41.109375 62.398438 47.320312 C 63.179688 48.527344 65.121094 47.40625 64.335938 46.1875 Z M 64.335938 46.1875 " fill-opacity="1" fill-rule="nonzero"/></svg>