<svg xmlns="http://www.w3.org/2000/svg" xmlns:xlink="http://www.w3.org/1999/xlink" width="400" zoomAndPan="magnify" viewBox="0 0 300 74.999997" height="100" preserveAspectRatio="xMidYMid meet" version="1.0"><defs><g/><clipPath id="9eef666698"><path d="M 0 12.9375 L 49.128906 12.9375 L 49.128906 62.0625 L 0 62.0625 Z M 0 12.9375 " clip-rule="nonzero"/></clipPath><clipPath id="94824cc304"><path d="M 24.5625 12.9375 C 22.953125 12.9375 21.355469 13.09375 19.773438 13.40625 C 18.191406 13.722656 16.652344 14.1875 15.164062 14.804688 C 13.671875 15.421875 12.257812 16.179688 10.917969 17.074219 C 9.574219 17.972656 8.335938 18.988281 7.195312 20.128906 C 6.054688 21.269531 5.035156 22.511719 4.140625 23.851562 C 3.242188 25.195312 2.488281 26.609375 1.871094 28.101562 C 1.253906 29.589844 0.785156 31.125 0.472656 32.707031 C 0.15625 34.289062 0 35.886719 0 37.5 C 0 39.113281 0.15625 40.710938 0.472656 42.292969 C 0.785156 43.875 1.253906 45.410156 1.871094 46.898438 C 2.488281 48.390625 3.242188 49.804688 4.140625 51.148438 C 5.035156 52.488281 6.054688 53.730469 7.195312 54.871094 C 8.335938 56.011719 9.574219 57.027344 10.917969 57.925781 C 12.257812 58.820312 13.671875 59.578125 15.164062 60.195312 C 16.652344 60.8125 18.191406 61.277344 19.773438 61.59375 C 21.355469 61.90625 22.953125 62.0625 24.5625 62.0625 C 26.175781 62.0625 27.773438 61.90625 29.355469 61.59375 C 30.9375 61.277344 32.472656 60.8125 33.964844 60.195312 C 35.453125 59.578125 36.871094 58.820312 38.210938 57.925781 C 39.550781 57.027344 40.792969 56.011719 41.933594 54.871094 C 43.074219 53.730469 44.09375 52.488281 44.988281 51.148438 C 45.886719 49.804688 46.640625 48.390625 47.257812 46.898438 C 47.875 45.410156 48.34375 43.875 48.65625 42.292969 C 48.972656 40.710938 49.128906 39.113281 49.128906 37.5 C 49.128906 35.886719 48.972656 34.289062 48.65625 32.707031 C 48.34375 31.125 47.875 29.589844 47.257812 28.101562 C 46.640625 26.609375 45.886719 25.195312 44.988281 23.851562 C 44.09375 22.511719 43.074219 21.269531 41.933594 20.128906 C 40.792969 18.988281 39.550781 17.972656 38.210938 17.074219 C 36.871094 16.179688 35.453125 15.421875 33.964844 14.804688 C 32.472656 14.1875 30.9375 13.722656 29.355469 13.40625 C 27.773438 13.09375 26.175781 12.9375 24.5625 12.9375 Z M 24.5625 12.9375 " clip-rule="nonzero"/></clipPath><clipPath id="24967b0861"><path d="M 4.609375 17.640625 L 44.359375 17.640625 L 44.359375 57.390625 L 4.609375 57.390625 Z M 4.609375 17.640625 " clip-rule="nonzero"/></clipPath></defs><rect x="-30" width="360" fill="#ffffff" y="-7.5" height="89.999996" fill-opacity="1"/><rect x="-30" width="360" fill="#ffffff" y="-7.5" height="89.999996" fill-opacity="1"/><g fill="#203d3c" fill-opacity="1"><g transform="translate(58.54869, 48.941664)"><g><path d="M 1.546875 -21.1875 L 9.265625 -21.1875 C 11.429688 -21.1875 13.179688 -20.628906 14.515625 -19.515625 C 15.847656 -18.410156 16.515625 -16.796875 16.515625 -14.671875 C 16.515625 -12.546875 15.835938 -10.878906 14.484375 -9.671875 C 13.128906 -8.460938 11.390625 -7.859375 9.265625 -7.859375 L 6.375 -7.859375 L 6.375 0 L 1.546875 0 Z M 6.375 -11.71875 L 7.734375 -11.71875 C 8.804688 -11.71875 9.691406 -11.9375 10.390625 -12.375 C 11.085938 -12.8125 11.4375 -13.523438 11.4375 -14.515625 C 11.4375 -15.523438 11.085938 -16.25 10.390625 -16.6875 C 9.691406 -17.125 8.804688 -17.34375 7.734375 -17.34375 L 6.375 -17.34375 Z M 6.375 -11.71875 "/></g></g></g><g fill="#203d3c" fill-opacity="1"><g transform="translate(80.783745, 48.941664)"><g><path d="M 12.296875 -21.1875 L 20.859375 0 L 15.671875 0 L 14.109375 -4.234375 L 6.03125 -4.234375 L 4.46875 0 L -0.71875 0 L 7.828125 -21.1875 Z M 12.453125 -8.484375 L 10.09375 -14.640625 L 10.046875 -14.640625 L 7.6875 -8.484375 Z M 12.453125 -8.484375 "/></g></g></g><g fill="#203d3c" fill-opacity="1"><g transform="translate(106.047963, 48.941664)"><g><path d="M 1.546875 -21.1875 L 9.125 -21.1875 C 11.15625 -21.1875 12.8125 -20.644531 14.09375 -19.5625 C 15.382812 -18.476562 16.03125 -16.925781 16.03125 -14.90625 C 16.03125 -13.34375 15.640625 -12.035156 14.859375 -10.984375 C 14.078125 -9.929688 13.019531 -9.191406 11.6875 -8.765625 L 18.984375 0 L 12.84375 0 L 6.375 -8.375 L 6.375 0 L 1.546875 0 Z M 6.375 -11.796875 L 6.9375 -11.796875 C 7.382812 -11.796875 7.757812 -11.800781 8.0625 -11.8125 C 8.375 -11.832031 8.722656 -11.894531 9.109375 -12 C 9.503906 -12.101562 9.820312 -12.25 10.0625 -12.4375 C 10.300781 -12.625 10.503906 -12.894531 10.671875 -13.25 C 10.847656 -13.613281 10.9375 -14.050781 10.9375 -14.5625 C 10.9375 -15.070312 10.847656 -15.507812 10.671875 -15.875 C 10.503906 -16.238281 10.300781 -16.515625 10.0625 -16.703125 C 9.820312 -16.890625 9.503906 -17.03125 9.109375 -17.125 C 8.722656 -17.226562 8.375 -17.289062 8.0625 -17.3125 C 7.757812 -17.332031 7.382812 -17.34375 6.9375 -17.34375 L 6.375 -17.34375 Z M 6.375 -11.796875 "/></g></g></g><g fill="#203d3c" fill-opacity="1"><g transform="translate(129.566565, 48.941664)"><g><path d="M 0.203125 -16.953125 L 0.203125 -21.1875 L 15.109375 -21.1875 L 15.109375 -16.953125 L 10.0625 -16.953125 L 10.0625 0 L 5.234375 0 L 5.234375 -16.953125 Z M 0.203125 -16.953125 "/></g></g></g><g fill="#203d3c" fill-opacity="1"><g transform="translate(150.00466, 48.941664)"><g><path d="M 6.375 -13.15625 L 6.375 0 L 1.546875 0 L 1.546875 -21.1875 L 6.375 -21.1875 L 14.796875 -8.046875 L 14.84375 -8.046875 L 14.84375 -21.1875 L 19.671875 -21.1875 L 19.671875 0 L 14.84375 0 L 6.421875 -13.15625 Z M 6.375 -13.15625 "/></g></g></g><g fill="#203d3c" fill-opacity="1"><g transform="translate(176.347042, 48.941664)"><g><path d="M 13.671875 -21.1875 L 13.671875 -16.953125 L 6.375 -16.953125 L 6.375 -12.734375 L 13.359375 -12.734375 L 13.359375 -8.5 L 6.375 -8.5 L 6.375 -4.234375 L 13.671875 -4.234375 L 13.671875 0 L 1.546875 0 L 1.546875 -21.1875 Z M 13.671875 -21.1875 "/></g></g></g><g fill="#203d3c" fill-opacity="1"><g transform="translate(196.374411, 48.941664)"><g><path d="M 1.546875 -21.1875 L 9.125 -21.1875 C 11.15625 -21.1875 12.8125 -20.644531 14.09375 -19.5625 C 15.382812 -18.476562 16.03125 -16.925781 16.03125 -14.90625 C 16.03125 -13.34375 15.640625 -12.035156 14.859375 -10.984375 C 14.078125 -9.929688 13.019531 -9.191406 11.6875 -8.765625 L 18.984375 0 L 12.84375 0 L 6.375 -8.375 L 6.375 0 L 1.546875 0 Z M 6.375 -11.796875 L 6.9375 -11.796875 C 7.382812 -11.796875 7.757812 -11.800781 8.0625 -11.8125 C 8.375 -11.832031 8.722656 -11.894531 9.109375 -12 C 9.503906 -12.101562 9.820312 -12.25 10.0625 -12.4375 C 10.300781 -12.625 10.503906 -12.894531 10.671875 -13.25 C 10.847656 -13.613281 10.9375 -14.050781 10.9375 -14.5625 C 10.9375 -15.070312 10.847656 -15.507812 10.671875 -15.875 C 10.503906 -16.238281 10.300781 -16.515625 10.0625 -16.703125 C 9.820312 -16.890625 9.503906 -17.03125 9.109375 -17.125 C 8.722656 -17.226562 8.375 -17.289062 8.0625 -17.3125 C 7.757812 -17.332031 7.382812 -17.34375 6.9375 -17.34375 L 6.375 -17.34375 Z M 6.375 -11.796875 "/></g></g></g><g fill="#e68600" fill-opacity="1"><g transform="translate(219.902357, 48.941664)"><g><path d="M 9.625 0 L 6.546875 0 L -0.515625 -13.171875 L 4.71875 -13.171875 L 7.9375 -6.0625 L 11.09375 -13.171875 L 14.234375 -13.171875 L 17.390625 -6.0625 L 20.59375 -13.171875 L 25.84375 -13.171875 L 18.78125 0 L 15.6875 0 L 12.65625 -6.8125 Z M 9.625 0 "/></g></g></g><g fill="#e68600" fill-opacity="1"><g transform="translate(250.352071, 48.941664)"><g><path d="M 1.984375 -20.53125 C 2.515625 -21.0625 3.144531 -21.328125 3.875 -21.328125 C 4.613281 -21.328125 5.25 -21.0625 5.78125 -20.53125 C 6.3125 -20 6.578125 -19.363281 6.578125 -18.625 C 6.578125 -17.882812 6.3125 -17.25 5.78125 -16.71875 C 5.25 -16.1875 4.613281 -15.921875 3.875 -15.921875 C 3.144531 -15.921875 2.515625 -16.1875 1.984375 -16.71875 C 1.453125 -17.25 1.1875 -17.882812 1.1875 -18.625 C 1.1875 -19.363281 1.453125 -20 1.984375 -20.53125 Z M 1.546875 -13.171875 L 1.546875 0 L 6.09375 0 L 6.09375 -13.171875 Z M 1.546875 -13.171875 "/></g></g></g><g fill="#e68600" fill-opacity="1"><g transform="translate(263.242952, 48.941664)"><g><path d="M 2.3125 -13.171875 L 2.3125 -18.078125 L 6.859375 -18.078125 L 6.859375 -13.171875 L 9.625 -13.171875 L 9.625 -9.703125 L 6.859375 -9.703125 L 6.859375 -5.515625 C 6.859375 -4.304688 7.203125 -3.703125 7.890625 -3.703125 C 8.054688 -3.703125 8.234375 -3.734375 8.421875 -3.796875 C 8.609375 -3.867188 8.753906 -3.9375 8.859375 -4 L 9.015625 -4.109375 L 10.140625 -0.4375 C 9.171875 0.113281 8.0625 0.390625 6.8125 0.390625 C 5.945312 0.390625 5.207031 0.238281 4.59375 -0.0625 C 3.976562 -0.363281 3.507812 -0.765625 3.1875 -1.265625 C 2.875 -1.773438 2.648438 -2.304688 2.515625 -2.859375 C 2.378906 -3.421875 2.3125 -4.019531 2.3125 -4.65625 L 2.3125 -9.703125 L 0.40625 -9.703125 L 0.40625 -13.171875 Z M 2.3125 -13.171875 "/></g></g></g><g fill="#e68600" fill-opacity="1"><g transform="translate(278.521222, 48.941664)"><g><path d="M 1.546875 0 L 1.546875 -22.09375 L 6.09375 -22.09375 L 6.09375 -11.796875 L 6.140625 -11.796875 C 7.316406 -12.972656 8.578125 -13.5625 9.921875 -13.5625 C 10.566406 -13.5625 11.207031 -13.472656 11.84375 -13.296875 C 12.488281 -13.128906 13.109375 -12.863281 13.703125 -12.5 C 14.296875 -12.144531 14.773438 -11.640625 15.140625 -10.984375 C 15.503906 -10.328125 15.6875 -9.5625 15.6875 -8.6875 L 15.6875 0 L 11.140625 0 L 11.140625 -7.453125 C 11.140625 -8.140625 10.921875 -8.738281 10.484375 -9.25 C 10.054688 -9.757812 9.488281 -10.015625 8.78125 -10.015625 C 8.09375 -10.015625 7.472656 -9.75 6.921875 -9.21875 C 6.367188 -8.6875 6.09375 -8.097656 6.09375 -7.453125 L 6.09375 0 Z M 1.546875 0 "/></g></g></g><g clip-path="url(#9eef666698)"><g clip-path="url(#94824cc304)"><path fill="#e68600" d="M 0 12.9375 L 49.128906 12.9375 L 49.128906 62.0625 L 0 62.0625 Z M 0 12.9375 " fill-opacity="1" fill-rule="nonzero"/></g></g><g clip-path="url(#24967b0861)"><path fill="#203d3c" d="M 24.46875 57.355469 C 13.519531 57.355469 4.609375 48.449219 4.609375 37.5 C 4.609375 26.550781 13.519531 17.640625 24.46875 17.640625 C 35.417969 17.640625 44.324219 26.550781 44.324219 37.5 C 44.324219 48.449219 35.417969 57.355469 24.46875 57.355469 Z M 24.46875 19.609375 C 14.601562 19.609375 6.578125 27.632812 6.578125 37.5 C 6.578125 47.363281 14.601562 55.390625 24.46875 55.390625 C 34.332031 55.390625 42.359375 47.363281 42.359375 37.5 C 42.359375 27.632812 34.332031 19.609375 24.46875 19.609375 Z M 24.46875 19.609375 " fill-opacity="1" fill-rule="nonzero"/></g><path fill="#203d3c" d="M 36.371094 45.519531 C 32.664062 39.789062 28.957031 34.0625 25.246094 28.332031 C 24.820312 27.671875 23.886719 27.660156 23.460938 28.332031 C 19.828125 34.0625 16.199219 39.789062 12.566406 45.519531 C 11.851562 46.648438 13.640625 47.683594 14.351562 46.5625 C 17.984375 40.832031 21.617188 35.105469 25.246094 29.375 C 24.652344 29.375 24.058594 29.375 23.460938 29.375 C 27.167969 35.105469 30.878906 40.832031 34.585938 46.5625 C 35.304688 47.679688 37.097656 46.640625 36.371094 45.519531 Z M 36.371094 45.519531 " fill-opacity="1" fill-rule="nonzero"/></svg>