<svg xmlns="http://www.w3.org/2000/svg" xmlns:xlink="http://www.w3.org/1999/xlink" width="500" zoomAndPan="magnify" viewBox="0 0 375 74.999997" height="100" preserveAspectRatio="xMidYMid meet" version="1.0"><defs><g/><clipPath id="d9ced9bdef"><path d="M 0 10.875 L 53.25 10.875 L 53.25 64.125 L 0 64.125 Z M 0 10.875 " clip-rule="nonzero"/></clipPath><clipPath id="58a1f5401b"><path d="M 26.625 10.875 C 24.878906 10.875 23.144531 11.046875 21.429688 11.386719 C 19.714844 11.726562 18.050781 12.234375 16.4375 12.902344 C 14.820312 13.570312 13.285156 14.390625 11.832031 15.363281 C 10.378906 16.332031 9.035156 17.4375 7.796875 18.671875 C 6.5625 19.910156 5.457031 21.253906 4.488281 22.707031 C 3.515625 24.160156 2.695312 25.695312 2.027344 27.3125 C 1.359375 28.925781 0.851562 30.589844 0.511719 32.304688 C 0.171875 34.019531 0 35.75 0 37.5 C 0 39.25 0.171875 40.980469 0.511719 42.695312 C 0.851562 44.410156 1.359375 46.074219 2.027344 47.6875 C 2.695312 49.304688 3.515625 50.839844 4.488281 52.292969 C 5.457031 53.746094 6.5625 55.089844 7.796875 56.328125 C 9.035156 57.5625 10.378906 58.667969 11.832031 59.636719 C 13.285156 60.609375 14.820312 61.429688 16.4375 62.097656 C 18.050781 62.765625 19.714844 63.273438 21.429688 63.613281 C 23.144531 63.953125 24.878906 64.125 26.625 64.125 C 28.375 64.125 30.105469 63.953125 31.820312 63.613281 C 33.535156 63.273438 35.199219 62.765625 36.8125 62.097656 C 38.429688 61.429688 39.964844 60.609375 41.417969 59.636719 C 42.871094 58.667969 44.214844 57.5625 45.453125 56.328125 C 46.6875 55.089844 47.792969 53.746094 48.761719 52.292969 C 49.734375 50.839844 50.554688 49.304688 51.222656 47.6875 C 51.894531 46.074219 52.398438 44.410156 52.738281 42.695312 C 53.078125 40.980469 53.25 39.25 53.25 37.5 C 53.25 35.75 53.078125 34.019531 52.738281 32.304688 C 52.398438 30.589844 51.894531 28.925781 51.222656 27.3125 C 50.554688 25.695312 49.734375 24.160156 48.761719 22.707031 C 47.792969 21.253906 46.6875 19.910156 45.453125 18.671875 C 44.214844 17.4375 42.871094 16.332031 41.417969 15.363281 C 39.964844 14.390625 38.429688 13.570312 36.8125 12.902344 C 35.199219 12.234375 33.535156 11.726562 31.820312 11.386719 C 30.105469 11.046875 28.375 10.875 26.625 10.875 Z M 26.625 10.875 " clip-rule="nonzero"/></clipPath><clipPath id="3e1f869ffa"><path d="M 4.996094 15.976562 L 47.746094 15.976562 L 47.746094 58.726562 L 4.996094 58.726562 Z M 4.996094 15.976562 " clip-rule="nonzero"/></clipPath></defs><rect x="-37.5" width="450" fill="#ffffff" y="-7.5" height="89.999996" fill-opacity="1"/><rect x="-37.5" width="450" fill="#f7f5f3" y="-7.5" height="89.999996" fill-opacity="1"/><g fill="#203d3c" fill-opacity="1"><g transform="translate(63.460896, 49.901612)"><g><path d="M 1.671875 -22.96875 L 10.046875 -22.96875 C 12.390625 -22.96875 14.285156 -22.363281 15.734375 -21.15625 C 17.179688 -19.945312 17.90625 -18.191406 17.90625 -15.890625 C 17.90625 -13.597656 17.171875 -11.796875 15.703125 -10.484375 C 14.234375 -9.171875 12.347656 -8.515625 10.046875 -8.515625 L 6.90625 -8.515625 L 6.90625 0 L 1.671875 0 Z M 6.90625 -12.703125 L 8.375 -12.703125 C 9.550781 -12.703125 10.515625 -12.9375 11.265625 -13.40625 C 12.015625 -13.875 12.390625 -14.648438 12.390625 -15.734375 C 12.390625 -16.828125 12.015625 -17.609375 11.265625 -18.078125 C 10.515625 -18.554688 9.550781 -18.796875 8.375 -18.796875 L 6.90625 -18.796875 Z M 6.90625 -12.703125 "/></g></g></g><g fill="#203d3c" fill-opacity="1"><g transform="translate(87.561463, 49.901612)"><g><path d="M 13.34375 -22.96875 L 22.609375 0 L 16.984375 0 L 15.28125 -4.59375 L 6.546875 -4.59375 L 4.84375 0 L -0.78125 0 L 8.5 -22.96875 Z M 13.5 -9.1875 L 10.9375 -15.875 L 10.890625 -15.875 L 8.328125 -9.1875 Z M 13.5 -9.1875 "/></g></g></g><g fill="#203d3c" fill-opacity="1"><g transform="translate(114.945338, 49.901612)"><g><path d="M 1.671875 -22.96875 L 9.890625 -22.96875 C 12.097656 -22.96875 13.894531 -22.378906 15.28125 -21.203125 C 16.675781 -20.023438 17.375 -18.34375 17.375 -16.15625 C 17.375 -14.457031 16.953125 -13.035156 16.109375 -11.890625 C 15.265625 -10.753906 14.117188 -9.957031 12.671875 -9.5 L 20.578125 0 L 13.921875 0 L 6.90625 -9.078125 L 6.90625 0 L 1.671875 0 Z M 6.90625 -12.78125 L 7.515625 -12.78125 C 7.992188 -12.78125 8.398438 -12.789062 8.734375 -12.8125 C 9.078125 -12.832031 9.460938 -12.894531 9.890625 -13 C 10.316406 -13.113281 10.65625 -13.269531 10.90625 -13.46875 C 11.164062 -13.675781 11.390625 -13.972656 11.578125 -14.359375 C 11.765625 -14.753906 11.859375 -15.226562 11.859375 -15.78125 C 11.859375 -16.34375 11.765625 -16.816406 11.578125 -17.203125 C 11.390625 -17.597656 11.164062 -17.894531 10.90625 -18.09375 C 10.65625 -18.300781 10.316406 -18.457031 9.890625 -18.5625 C 9.460938 -18.675781 9.078125 -18.742188 8.734375 -18.765625 C 8.398438 -18.785156 7.992188 -18.796875 7.515625 -18.796875 L 6.90625 -18.796875 Z M 6.90625 -12.78125 "/></g></g></g><g fill="#203d3c" fill-opacity="1"><g transform="translate(140.43714, 49.901612)"><g><path d="M 0.21875 -18.375 L 0.21875 -22.96875 L 16.375 -22.96875 L 16.375 -18.375 L 10.921875 -18.375 L 10.921875 0 L 5.6875 0 L 5.6875 -18.375 Z M 0.21875 -18.375 "/></g></g></g><g fill="#203d3c" fill-opacity="1"><g transform="translate(162.589982, 49.901612)"><g><path d="M 6.90625 -14.25 L 6.90625 0 L 1.671875 0 L 1.671875 -22.96875 L 6.90625 -22.96875 L 16.03125 -8.71875 L 16.09375 -8.71875 L 16.09375 -22.96875 L 21.328125 -22.96875 L 21.328125 0 L 16.09375 0 L 6.953125 -14.25 Z M 6.90625 -14.25 "/></g></g></g><g fill="#203d3c" fill-opacity="1"><g transform="translate(191.142478, 49.901612)"><g><path d="M 14.8125 -22.96875 L 14.8125 -18.375 L 6.90625 -18.375 L 6.90625 -13.8125 L 14.484375 -13.8125 L 14.484375 -9.21875 L 6.90625 -9.21875 L 6.90625 -4.59375 L 14.8125 -4.59375 L 14.8125 0 L 1.671875 0 L 1.671875 -22.96875 Z M 14.8125 -22.96875 "/></g></g></g><g fill="#203d3c" fill-opacity="1"><g transform="translate(212.850135, 49.901612)"><g><path d="M 1.671875 -22.96875 L 9.890625 -22.96875 C 12.097656 -22.96875 13.894531 -22.378906 15.28125 -21.203125 C 16.675781 -20.023438 17.375 -18.34375 17.375 -16.15625 C 17.375 -14.457031 16.953125 -13.035156 16.109375 -11.890625 C 15.265625 -10.753906 14.117188 -9.957031 12.671875 -9.5 L 20.578125 0 L 13.921875 0 L 6.90625 -9.078125 L 6.90625 0 L 1.671875 0 Z M 6.90625 -12.78125 L 7.515625 -12.78125 C 7.992188 -12.78125 8.398438 -12.789062 8.734375 -12.8125 C 9.078125 -12.832031 9.460938 -12.894531 9.890625 -13 C 10.316406 -13.113281 10.65625 -13.269531 10.90625 -13.46875 C 11.164062 -13.675781 11.390625 -13.972656 11.578125 -14.359375 C 11.765625 -14.753906 11.859375 -15.226562 11.859375 -15.78125 C 11.859375 -16.34375 11.765625 -16.816406 11.578125 -17.203125 C 11.390625 -17.597656 11.164062 -17.894531 10.90625 -18.09375 C 10.65625 -18.300781 10.316406 -18.457031 9.890625 -18.5625 C 9.460938 -18.675781 9.078125 -18.742188 8.734375 -18.765625 C 8.398438 -18.785156 7.992188 -18.796875 7.515625 -18.796875 L 6.90625 -18.796875 Z M 6.90625 -12.78125 "/></g></g></g><g fill="#e68600" fill-opacity="1"><g transform="translate(238.352065, 49.901612)"><g><path d="M 10.4375 0 L 7.09375 0 L -0.5625 -14.28125 L 5.125 -14.28125 L 8.609375 -6.578125 L 12.03125 -14.28125 L 15.421875 -14.28125 L 18.84375 -6.578125 L 22.328125 -14.28125 L 28.015625 -14.28125 L 20.359375 0 L 17.015625 0 L 13.734375 -7.375 Z M 10.4375 0 "/></g></g></g><g fill="#e68600" fill-opacity="1"><g transform="translate(271.356497, 49.901612)"><g><path d="M 2.140625 -22.25 C 2.710938 -22.820312 3.398438 -23.109375 4.203125 -23.109375 C 5.003906 -23.109375 5.691406 -22.820312 6.265625 -22.25 C 6.835938 -21.675781 7.125 -20.988281 7.125 -20.1875 C 7.125 -19.382812 6.835938 -18.695312 6.265625 -18.125 C 5.691406 -17.550781 5.003906 -17.265625 4.203125 -17.265625 C 3.398438 -17.265625 2.710938 -17.550781 2.140625 -18.125 C 1.566406 -18.695312 1.28125 -19.382812 1.28125 -20.1875 C 1.28125 -20.988281 1.566406 -21.675781 2.140625 -22.25 Z M 1.671875 -14.28125 L 1.671875 0 L 6.59375 0 L 6.59375 -14.28125 Z M 1.671875 -14.28125 "/></g></g></g><g fill="#e68600" fill-opacity="1"><g transform="translate(285.328918, 49.901612)"><g><path d="M 2.5 -14.28125 L 2.5 -19.609375 L 7.4375 -19.609375 L 7.4375 -14.28125 L 10.4375 -14.28125 L 10.4375 -10.53125 L 7.4375 -10.53125 L 7.4375 -5.984375 C 7.4375 -4.671875 7.804688 -4.015625 8.546875 -4.015625 C 8.734375 -4.015625 8.925781 -4.050781 9.125 -4.125 C 9.332031 -4.195312 9.492188 -4.269531 9.609375 -4.34375 L 9.765625 -4.453125 L 11 -0.46875 C 9.9375 0.125 8.726562 0.421875 7.375 0.421875 C 6.445312 0.421875 5.648438 0.257812 4.984375 -0.0625 C 4.316406 -0.394531 3.8125 -0.832031 3.46875 -1.375 C 3.125 -1.925781 2.875 -2.503906 2.71875 -3.109375 C 2.570312 -3.710938 2.5 -4.359375 2.5 -5.046875 L 2.5 -10.53125 L 0.453125 -10.53125 L 0.453125 -14.28125 Z M 2.5 -14.28125 "/></g></g></g><g fill="#e68600" fill-opacity="1"><g transform="translate(301.889027, 49.901612)"><g><path d="M 1.671875 0 L 1.671875 -23.953125 L 6.59375 -23.953125 L 6.59375 -12.78125 L 6.65625 -12.78125 C 7.9375 -14.0625 9.300781 -14.703125 10.75 -14.703125 C 11.457031 -14.703125 12.15625 -14.609375 12.84375 -14.421875 C 13.539062 -14.234375 14.207031 -13.941406 14.84375 -13.546875 C 15.488281 -13.160156 16.007812 -12.609375 16.40625 -11.890625 C 16.8125 -11.179688 17.015625 -10.351562 17.015625 -9.40625 L 17.015625 0 L 12.078125 0 L 12.078125 -8.078125 C 12.078125 -8.816406 11.84375 -9.460938 11.375 -10.015625 C 10.90625 -10.578125 10.285156 -10.859375 9.515625 -10.859375 C 8.773438 -10.859375 8.101562 -10.566406 7.5 -9.984375 C 6.894531 -9.410156 6.59375 -8.773438 6.59375 -8.078125 L 6.59375 0 Z M 1.671875 0 "/></g></g></g><g clip-path="url(#d9ced9bdef)"><g clip-path="url(#58a1f5401b)"><path fill="#e68600" d="M 0 10.875 L 53.25 10.875 L 53.25 64.125 L 0 64.125 Z M 0 10.875 " fill-opacity="1" fill-rule="nonzero"/></g></g><g clip-path="url(#3e1f869ffa)"><path fill="#203d3c" d="M 26.519531 59.015625 C 14.652344 59.015625 4.996094 49.363281 4.996094 37.5 C 4.996094 25.628906 14.652344 15.976562 26.519531 15.976562 C 38.386719 15.976562 48.039062 25.628906 48.039062 37.5 C 48.039062 49.363281 38.386719 59.015625 26.519531 59.015625 Z M 26.519531 18.105469 C 15.828125 18.105469 7.128906 26.804688 7.128906 37.5 C 7.128906 48.1875 15.828125 56.886719 26.519531 56.886719 C 37.210938 56.886719 45.910156 48.1875 45.910156 37.5 C 45.910156 26.804688 37.210938 18.105469 26.519531 18.105469 Z M 26.519531 18.105469 " fill-opacity="1" fill-rule="nonzero"/></g><path fill="#203d3c" d="M 39.417969 46.1875 C 35.402344 39.980469 31.382812 33.769531 27.363281 27.5625 C 26.898438 26.84375 25.890625 26.832031 25.429688 27.5625 C 21.492188 33.769531 17.554688 39.980469 13.621094 46.1875 C 12.84375 47.414062 14.785156 48.535156 15.554688 47.320312 C 19.492188 41.109375 23.429688 34.902344 27.363281 28.691406 C 26.71875 28.691406 26.074219 28.691406 25.429688 28.691406 C 29.445312 34.902344 33.464844 41.109375 37.484375 47.320312 C 38.265625 48.527344 40.207031 47.40625 39.417969 46.1875 Z M 39.417969 46.1875 " fill-opacity="1" fill-rule="nonzero"/></svg>